<?xml version="1.0" standalone="no"?>
<!DOCTYPE svg PUBLIC "-//W3C//DTD SVG 20010904//EN"
 "http://www.w3.org/TR/2001/REC-SVG-20010904/DTD/svg10.dtd">
<svg version="1.0" xmlns="http://www.w3.org/2000/svg"
 width="512.000000pt" height="512.000000pt" viewBox="0 0 512.000000 512.000000"
 preserveAspectRatio="xMidYMid meet">
<metadata>
Created by potrace 1.16, written by Peter Selinger 2001-2019
</metadata>
<g transform="translate(0.000000,512.000000) scale(0.100000,-0.100000)"
fill="#000000" stroke="none">
<path d="M2306 5060 c-62 -19 -89 -61 -96 -149 l-5 -64 -65 -22 c-164 -56
-321 -155 -456 -289 -178 -177 -278 -357 -334 -599 -18 -77 -27 -99 -47 -112
-54 -36 -63 -67 -63 -231 0 -140 2 -153 23 -185 34 -51 78 -69 170 -69 l77 0
0 -33 c0 -29 -5 -35 -34 -45 -50 -18 -127 -92 -161 -154 -28 -49 -30 -60 -30
-158 0 -98 2 -109 30 -158 34 -62 111 -136 161 -154 34 -12 34 -13 34 -73 0
-80 31 -200 72 -278 53 -100 132 -170 301 -265 l147 -83 0 -84 c0 -64 -4 -88
-17 -104 -11 -13 -159 -80 -378 -171 -198 -83 -377 -163 -398 -177 -56 -39
-125 -119 -157 -183 -57 -113 -60 -142 -60 -564 l0 -386 -302 0 c-282 0 -305
-1 -335 -20 -79 -48 -54 -175 38 -194 18 -3 983 -6 2146 -6 2281 0 2159 -3
2197 51 9 13 16 41 16 62 0 31 -7 46 -34 73 -21 21 -44 34 -60 34 l-26 0 0
635 0 635 135 0 135 0 32 29 33 29 0 320 c0 244 -3 325 -13 343 -29 55 -19 54
-537 57 -324 2 -492 0 -517 -8 -20 -6 -46 -22 -57 -37 -20 -25 -21 -38 -21
-340 0 -212 4 -321 11 -336 26 -51 45 -57 192 -57 l137 0 0 -635 0 -635 -44 0
-45 0 -3 402 c-3 392 -4 405 -27 468 -29 82 -100 190 -154 234 -58 47 -96 64
-472 220 -181 76 -336 145 -343 154 -9 12 -12 45 -10 106 l3 89 148 86 c93 54
169 106 203 140 93 91 163 266 164 406 0 50 0 50 49 73 61 30 112 81 148 152
25 49 28 65 28 150 0 80 -4 103 -25 145 -31 63 -103 136 -158 160 -37 17 -42
23 -42 52 l0 33 78 0 c61 0 85 5 116 23 64 37 76 71 76 224 0 163 -12 202 -74
238 -40 23 -43 29 -54 89 -42 225 -164 449 -340 624 -132 131 -274 222 -439
282 l-63 23 0 54 c0 75 -29 129 -83 154 -37 17 -66 18 -267 18 -124 0 -238 -5
-254 -9z m394 -274 c0 -89 23 -115 127 -146 384 -112 671 -442 723 -830 6 -47
16 -97 22 -112 11 -29 47 -58 73 -58 11 0 15 -11 15 -40 l0 -40 -1105 0 -1105
0 0 40 c0 26 4 40 13 40 7 0 25 13 40 28 22 23 29 43 36 103 41 320 200 579
459 746 76 49 202 106 282 127 118 33 140 56 140 151 l0 55 140 0 140 0 0 -64z
m690 -1521 c0 -131 23 -171 107 -186 54 -10 86 -29 109 -64 22 -33 21 -97 0
-130 -23 -35 -74 -65 -111 -65 -35 0 -69 -21 -87 -53 -7 -12 -15 -82 -18 -157
-6 -120 -10 -142 -35 -194 -15 -32 -44 -75 -64 -95 -34 -34 -575 -353 -655
-386 -55 -23 -113 -19 -181 14 -127 61 -592 334 -628 369 -73 71 -107 179
-107 338 0 129 -16 151 -122 169 -45 7 -94 52 -103 95 -15 70 33 144 103 155
105 18 122 41 122 168 0 52 3 97 7 100 3 4 379 7 835 7 l828 0 0 -85z m-1088
-1476 c93 -55 139 -71 226 -76 102 -7 180 12 272 67 l65 38 3 -26 c3 -21 -5
-35 -40 -66 -128 -115 -329 -138 -468 -53 -61 38 -120 98 -120 123 0 13 2 24
5 24 2 0 28 -14 57 -31z m-85 -272 c99 -67 190 -98 308 -104 151 -8 306 39
405 124 l39 34 41 -23 40 -23 0 -277 0 -278 -93 0 c-105 0 -130 -11 -153 -66
-14 -33 -16 -34 -74 -34 -59 0 -60 1 -74 34 -37 90 -154 92 -193 4 l-17 -38
-63 0 c-57 0 -63 2 -63 21 0 11 -13 34 -29 50 -28 28 -33 29 -125 29 l-96 0 0
278 0 277 33 22 c17 12 33 22 34 22 1 1 37 -23 80 -52z m2223 -612 c0 -628 0
-635 -20 -635 -20 0 -20 7 -20 635 0 628 0 635 20 635 20 0 20 -7 20 -635z
m-2980 -135 l0 -500 -116 0 -115 0 3 387 3 388 26 55 c32 67 82 120 140 148
24 11 47 21 52 22 4 0 7 -225 7 -500z m2258 476 c56 -29 101 -75 133 -136 24
-45 24 -47 27 -442 l3 -398 -111 0 -110 0 0 500 c0 275 2 500 5 500 3 0 27
-11 53 -24z"/>
<path d="M2204 4462 c-170 -60 -316 -181 -391 -327 -44 -86 -73 -186 -73 -252
0 -82 80 -134 150 -98 35 18 54 55 65 125 12 77 71 184 134 243 60 55 161 111
222 122 60 11 97 39 109 84 9 33 8 46 -5 70 -35 68 -86 76 -211 33z"/>
<path d="M2155 3052 c-49 -11 -95 -65 -95 -112 0 -40 31 -88 67 -105 111 -53
218 84 136 175 -29 32 -74 49 -108 42z"/>
<path d="M2862 3020 c-38 -38 -47 -78 -29 -121 31 -74 105 -99 167 -57 64 43
72 124 18 178 -25 25 -38 30 -78 30 -41 0 -53 -5 -78 -30z"/>
<path d="M2391 2534 c-59 -50 -49 -148 23 -220 117 -118 309 -60 347 104 11
47 -4 95 -38 122 -23 18 -40 20 -164 20 -133 0 -138 -1 -168 -26z"/>
<path d="M29 4919 l-29 -31 0 -1643 0 -1643 31 -31 31 -31 528 0 528 0 31 29
31 29 0 260 0 260 -37 49 c-20 26 -67 87 -105 134 l-68 87 45 141 c53 168 54
161 -48 318 l-66 102 30 88 c46 136 44 151 -31 278 -38 64 -63 118 -62 132 1
13 11 60 22 103 32 124 30 134 -50 254 -38 59 -70 110 -70 115 0 5 20 51 45
103 25 52 47 108 50 124 4 20 -10 75 -44 173 l-50 143 21 134 c27 161 27 158
-86 277 l-73 77 -273 0 -272 0 -29 -31z m505 -210 c15 -17 25 -39 22 -48 -2
-9 -12 -61 -21 -117 l-16 -100 37 -105 c64 -183 64 -158 -1 -289 -46 -93 -55
-121 -51 -149 3 -20 38 -84 81 -148 l75 -113 -25 -106 c-14 -58 -25 -115 -25
-127 0 -12 30 -73 66 -136 l67 -115 -32 -96 c-17 -53 -31 -111 -31 -130 0 -24
20 -65 76 -152 l75 -119 -26 -80 -27 -79 -284 0 -284 0 0 1120 0 1120 149 0
149 0 26 -31z m334 -2548 l102 -130 0 -135 0 -136 -375 0 -375 0 0 265 0 265
273 0 274 0 101 -129z"/>
<path d="M333 2085 c-77 -33 -76 -152 2 -190 45 -21 280 -21 330 -1 76 32 85
137 16 183 -31 21 -44 23 -175 23 -97 -1 -151 -5 -173 -15z"/>
<path d="M4673 4178 c-45 -12 -73 -51 -73 -104 0 -37 6 -49 52 -99 l51 -56
-126 -127 c-129 -129 -150 -162 -140 -215 7 -35 48 -75 81 -79 57 -7 86 11
214 139 l127 126 56 -51 c51 -47 61 -52 102 -52 36 0 50 6 74 29 24 24 29 38
29 77 l0 48 -177 178 c-185 186 -210 202 -270 186z"/>
<path d="M505 1216 c-16 -8 -105 -90 -197 -182 -136 -139 -168 -176 -173 -205
-9 -46 14 -93 55 -114 55 -29 98 -15 164 54 l40 41 137 -135 c124 -122 140
-135 172 -135 74 0 117 42 117 116 0 33 -11 48 -135 173 l-135 137 41 40 c45
44 69 83 69 114 0 34 -28 78 -60 95 -35 18 -56 18 -95 1z"/>
<path d="M55 258 c-37 -20 -55 -51 -55 -99 0 -37 5 -50 29 -73 48 -46 136 -38
170 15 18 29 16 92 -3 121 -29 44 -96 61 -141 36z"/>
<path d="M4960 257 c-14 -7 -33 -28 -43 -47 -46 -90 42 -186 135 -147 45 19
60 39 65 92 5 41 3 47 -30 80 -38 38 -80 46 -127 22z"/>
</g>
</svg>
