<?xml version="1.0" standalone="no"?>
<!DOCTYPE svg PUBLIC "-//W3C//DTD SVG 20010904//EN"
 "http://www.w3.org/TR/2001/REC-SVG-20010904/DTD/svg10.dtd">
<svg version="1.0" xmlns="http://www.w3.org/2000/svg"
 width="512.000000pt" height="512.000000pt" viewBox="0 0 512.000000 512.000000"
 preserveAspectRatio="xMidYMid meet">
<metadata>
Created by potrace 1.16, written by Peter Selinger 2001-2019
</metadata>
<g transform="translate(0.000000,512.000000) scale(0.100000,-0.100000)"
fill="#000000" stroke="none">
<path d="M2420 4694 c-378 -46 -695 -157 -970 -340 -137 -91 -170 -121 -170
-154 0 -30 22 -50 54 -50 9 0 51 26 94 57 461 342 1081 466 1666 333 266 -60
594 -224 805 -401 70 -59 105 -71 129 -47 21 21 14 66 -15 93 -16 15 -68 57
-118 94 -268 203 -579 336 -928 397 -79 14 -473 27 -547 18z"/>
<path d="M2345 4424 c-204 -31 -365 -82 -560 -179 -178 -89 -303 -176 -438
-305 -218 -208 -369 -441 -473 -726 -39 -110 -88 -301 -99 -388 l-7 -56 -78 0
-77 0 14 93 c55 349 186 664 393 943 44 59 80 114 80 121 0 19 -37 53 -57 53
-42 0 -198 -215 -298 -410 -109 -213 -194 -481 -226 -708 -13 -92 -13 -93 -51
-114 -48 -27 -78 -86 -78 -155 l0 -50 -47 -18 c-68 -26 -145 -106 -172 -178
-18 -50 -21 -80 -21 -230 l-1 -172 -39 -18 c-95 -44 -115 -179 -37 -255 38
-37 81 -52 149 -52 l48 0 0 -177 c0 -150 3 -183 18 -212 51 -101 195 -108 254
-12 21 33 23 50 26 218 l4 183 108 0 108 0 4 -182 c3 -162 5 -187 23 -218 57
-97 201 -92 253 10 20 41 22 58 22 216 l0 171 71 5 c78 6 108 22 147 79 20 29
23 44 20 96 -3 55 -8 67 -38 98 -19 20 -45 38 -57 41 -21 6 -22 10 -25 192 -3
181 -4 189 -31 244 -33 67 -99 130 -163 154 -42 16 -44 18 -44 58 0 67 -18
112 -58 147 -41 36 -40 34 -16 159 76 381 255 716 517 967 291 279 647 437
1070 474 424 38 892 -104 1219 -367 42 -35 86 -68 97 -73 42 -23 92 21 76 67
-3 9 -22 29 -43 44 -20 15 -80 59 -132 98 -223 163 -518 282 -811 324 -132 20
-418 20 -544 0z m-1507 -1770 c17 -12 22 -25 22 -60 l0 -44 -180 0 -180 0 0
44 c0 69 16 76 180 76 106 0 140 -3 158 -16z m153 -237 c24 -13 58 -43 74 -66
l30 -43 3 -184 3 -184 -420 0 -421 0 0 170 c0 131 4 179 15 208 21 49 52 81
100 103 36 17 69 19 306 19 259 0 267 -1 310 -23z m221 -594 c22 -20 23 -51 1
-75 -15 -17 -45 -18 -531 -18 -466 0 -517 2 -534 17 -22 20 -23 51 -1 75 15
17 45 18 531 18 466 0 517 -2 534 -17z m-752 -367 c0 -187 -4 -201 -52 -194
-23 3 -23 3 -26 186 l-2 182 40 0 40 0 0 -174z m518 -2 c-3 -156 -5 -178 -20
-188 -13 -8 -23 -8 -35 0 -16 10 -18 32 -21 188 l-2 176 40 0 40 0 -2 -176z"/>
<path d="M2745 3959 c-17 -4 -44 -23 -61 -41 -17 -18 -240 -341 -494 -718
-438 -647 -464 -688 -468 -736 -5 -61 13 -102 60 -136 33 -23 37 -23 331 -26
163 -2 297 -4 297 -6 0 -1 -61 -214 -135 -472 -74 -258 -135 -478 -135 -489 0
-11 9 -39 19 -62 32 -70 131 -104 199 -69 41 21 54 39 272 360 131 193 203
308 203 324 0 27 -26 52 -53 52 -25 0 -34 -13 -255 -337 -184 -271 -205 -298
-230 -298 -15 0 -32 7 -38 16 -7 12 28 147 136 527 81 281 144 518 141 527 -4
8 -15 20 -25 25 -10 6 -149 10 -336 10 -175 0 -323 4 -329 8 -32 21 -22 45 79
195 57 84 260 384 452 667 191 283 359 530 372 548 28 37 58 40 78 7 11 -17
-7 -89 -131 -519 -79 -275 -144 -509 -144 -521 0 -44 7 -45 351 -45 284 0 330
-2 343 -16 9 -8 16 -22 16 -30 0 -9 -70 -119 -155 -245 -85 -127 -155 -235
-155 -240 0 -5 11 -21 24 -34 20 -19 30 -23 48 -16 30 11 335 461 344 509 9
45 -21 117 -59 146 -27 20 -43 21 -331 26 l-303 5 133 464 c74 256 134 482
134 504 0 94 -100 164 -195 136z"/>
<path d="M4110 3952 c-23 -11 -43 -33 -57 -62 -21 -41 -23 -58 -23 -216 l0
-171 -71 -5 c-78 -6 -108 -22 -147 -79 -20 -29 -23 -44 -20 -96 3 -55 8 -67
38 -98 19 -20 45 -38 57 -41 21 -6 22 -10 25 -192 3 -181 4 -189 31 -244 33
-67 99 -130 163 -154 42 -16 44 -18 44 -58 0 -69 18 -113 59 -147 l38 -32 -14
-75 c-117 -674 -554 -1202 -1164 -1406 -444 -148 -915 -119 -1334 84 -127 61
-269 151 -346 219 -26 22 -57 45 -70 50 -47 17 -90 -21 -74 -66 3 -10 22 -30
43 -45 20 -15 80 -59 132 -98 187 -138 452 -253 705 -306 167 -36 459 -44 637
-19 396 56 742 224 1022 495 216 210 358 431 463 719 38 107 87 298 98 385 l7
56 78 0 77 0 -14 -87 c-57 -358 -185 -669 -393 -949 -44 -59 -80 -114 -80
-121 0 -18 37 -53 57 -53 39 0 182 192 280 378 126 235 220 531 249 774 6 50
10 59 42 80 57 37 76 70 80 142 l4 64 46 18 c67 25 145 106 171 177 18 50 21
80 21 230 l1 172 39 18 c95 44 115 179 37 255 -38 37 -81 52 -149 52 l-48 0 0
178 c0 149 -3 182 -18 211 -51 101 -195 108 -254 12 -21 -33 -23 -50 -26 -218
l-4 -183 -108 0 -108 0 -4 183 c-3 160 -5 186 -23 216 -39 65 -124 89 -195 53z
m98 -104 c8 -8 12 -64 12 -185 l0 -173 -40 0 -40 0 0 173 c0 177 4 197 40 197
9 0 21 -5 28 -12z m526 -4 c3 -9 6 -92 6 -185 l0 -169 -40 0 -40 0 0 173 c0
121 4 177 12 185 17 17 55 15 62 -4z m238 -471 c22 -20 23 -51 1 -75 -15 -17
-45 -18 -531 -18 -466 0 -517 2 -534 17 -22 20 -23 51 -1 75 15 17 45 18 531
18 466 0 517 -2 534 -17z m-112 -365 c0 -187 -9 -227 -61 -275 -54 -49 -80
-53 -362 -53 -257 0 -265 1 -308 23 -24 13 -57 43 -74 66 l-30 43 -3 184 -3
184 420 0 421 0 0 -172z m-240 -482 c0 -69 -16 -76 -180 -76 -164 0 -180 7
-180 76 l0 44 180 0 180 0 0 -44z"/>
<path d="M1090 1021 c-5 -11 -10 -29 -10 -40 0 -43 258 -232 448 -329 285
-146 570 -218 898 -229 363 -12 702 59 1019 213 113 55 325 188 378 238 35 32
33 64 -5 86 -33 18 -20 24 -185 -89 -245 -168 -544 -282 -854 -326 -138 -20
-418 -19 -560 1 -364 50 -709 201 -993 434 -79 64 -117 75 -136 41z"/>
</g>
</svg>
