<?xml version="1.0" standalone="no"?>
<!DOCTYPE svg PUBLIC "-//W3C//DTD SVG 20010904//EN"
 "http://www.w3.org/TR/2001/REC-SVG-20010904/DTD/svg10.dtd">
<svg version="1.0" xmlns="http://www.w3.org/2000/svg"
 width="512.000000pt" height="512.000000pt" viewBox="0 0 512.000000 512.000000"
 preserveAspectRatio="xMidYMid meet">
<metadata>
Created by potrace 1.16, written by Peter Selinger 2001-2019
</metadata>
<g transform="translate(0.000000,512.000000) scale(0.100000,-0.100000)"
fill="#000000" stroke="none">
<path d="M1835 5106 c-50 -23 -1799 -1618 -1818 -1659 -19 -39 -22 -131 -7
-173 15 -39 185 -239 223 -263 43 -26 104 -36 150 -23 l36 10 3 -706 3 -707
27 -52 c34 -64 86 -115 147 -145 l46 -23 904 -5 905 -5 -225 -260 c-123 -143
-241 -280 -262 -305 -222 -262 -101 -672 226 -772 92 -28 246 -23 322 11 113
49 136 74 677 699 292 336 533 612 537 612 3 0 41 -7 84 -15 101 -19 302 -19
404 0 230 44 408 139 579 309 171 172 264 347 309 579 30 159 13 433 -33 511
-10 17 -33 41 -52 53 -43 30 -131 32 -176 4 -17 -11 -141 -146 -274 -300
l-243 -281 -91 0 c-50 0 -161 3 -247 7 l-157 6 -37 231 c-20 127 -37 236 -38
243 -1 6 104 134 233 283 129 150 244 286 255 303 24 39 25 119 2 165 -10 17
-36 44 -59 60 -41 26 -45 27 -177 26 -75 -1 -157 -6 -182 -11 l-45 -10 -182
165 -182 165 0 386 c0 239 -4 400 -11 424 -13 47 -63 106 -106 123 -41 17
-496 20 -540 3 -64 -24 -112 -92 -122 -173 l-6 -50 -300 273 c-165 151 -314
280 -332 287 -41 18 -129 17 -168 0z m721 -1327 c346 -314 635 -577 643 -584
11 -11 4 -23 -42 -78 -161 -190 -247 -433 -247 -700 0 -142 18 -254 59 -366
l28 -77 -186 -216 -186 -217 -72 0 -72 -1 -3 498 c-3 445 -5 501 -21 534 -24
52 -73 105 -121 131 -40 22 -49 22 -416 22 -367 0 -376 0 -416 -22 -48 -26
-97 -79 -121 -131 -16 -33 -18 -89 -21 -534 l-3 -498 -340 0 -339 0 -38 34
-37 34 -3 775 -2 776 656 595 c361 328 660 596 664 596 3 0 290 -257 636 -571z
m1352 -454 c-2 -7 -113 -141 -248 -296 -135 -155 -249 -289 -253 -298 -6 -13
64 -483 88 -588 5 -22 11 -23 85 -23 75 0 81 -1 90 -24 4 -13 20 -32 34 -43
23 -19 47 -21 356 -28 281 -6 334 -5 353 8 12 8 96 100 187 205 90 105 167
189 170 187 11 -7 -9 -190 -30 -269 -24 -96 -95 -247 -154 -330 -85 -120 -230
-247 -345 -303 -54 -27 -61 -28 -221 -28 -140 0 -177 3 -247 22 -98 27 -110
24 -176 -46 l-48 -51 -57 14 c-31 9 -59 12 -63 8 -3 -4 -250 -290 -549 -636
l-543 -628 -46 4 c-191 19 -313 239 -229 418 18 40 173 226 571 685 391 451
548 639 553 661 4 22 0 44 -14 70 -11 22 -31 75 -45 120 -124 393 24 820 365
1052 138 94 428 190 416 137z"/>
<path d="M2466 758 c-48 -44 -177 -203 -182 -225 -10 -37 15 -84 53 -99 51
-22 82 -2 183 116 79 92 90 110 90 143 0 77 -87 116 -144 65z"/>
</g>
</svg>
