<?xml version="1.0" standalone="no"?>
<!DOCTYPE svg PUBLIC "-//W3C//DTD SVG 20010904//EN"
 "http://www.w3.org/TR/2001/REC-SVG-20010904/DTD/svg10.dtd">
<svg version="1.0" xmlns="http://www.w3.org/2000/svg"
 width="512.000000pt" height="512.000000pt" viewBox="0 0 512.000000 512.000000"
 preserveAspectRatio="xMidYMid meet">
<metadata>
Created by potrace 1.16, written by Peter Selinger 2001-2019
</metadata>
<g transform="translate(0.000000,512.000000) scale(0.100000,-0.100000)"
fill="#000000" stroke="none">
<path d="M2215 5021 c-61 -27 -2091 -1980 -2116 -2035 -25 -55 -25 -157 0
-211 40 -86 120 -135 221 -135 75 0 117 17 183 75 l52 45 3 -1180 2 -1180
1320 0 1320 0 0 -77 c0 -103 34 -168 113 -213 52 -30 53 -30 207 -30 154 0
155 0 207 30 39 22 61 44 83 83 39 68 39 85 -6 707 -30 425 -38 501 -55 535
-24 50 -59 76 -110 82 l-39 6 0 192 c0 117 4 205 11 225 22 61 16 60 666 60
656 0 630 -2 700 71 63 66 63 69 63 491 0 427 -1 428 -71 495 -49 46 -97 63
-179 63 l-70 0 0 150 c0 168 -8 201 -63 259 -65 69 -76 71 -422 71 l-310 0
-730 702 c-481 462 -744 707 -770 719 -53 25 -156 25 -210 0z m141 -154 c12
-7 287 -266 610 -578 324 -311 618 -593 654 -627 l65 -61 -115 -1 -115 0 -567
546 -568 545 -971 -933 c-534 -513 -984 -939 -999 -947 -62 -30 -130 37 -99
99 14 28 1994 1935 2033 1957 11 7 28 12 36 12 8 0 25 -5 36 -12z m418 -837
l443 -425 -366 -5 c-403 -6 -393 -4 -461 -72 -69 -69 -70 -71 -70 -488 0 -417
1 -419 70 -488 65 -65 71 -67 333 -70 l237 -3 0 -413 c0 -407 0 -412 -22 -456
-17 -33 -35 -51 -68 -67 -56 -29 -84 -29 -140 -1 -76 39 -84 64 -90 273 -6
197 -10 214 -72 275 -93 94 -243 93 -337 -1 -72 -72 -71 -59 -71 -594 0 -478
0 -481 -22 -525 -25 -48 -89 -90 -138 -90 -42 0 -113 42 -135 80 -19 34 -20
55 -25 820 -5 779 -5 785 -27 832 -28 60 -101 134 -161 161 -36 17 -66 22
-132 22 -103 0 -157 -21 -225 -90 -88 -88 -89 -93 -95 -475 -3 -184 -9 -342
-13 -352 -14 -28 -62 -42 -96 -28 -16 6 -33 19 -37 28 -5 10 -11 112 -14 227
-6 230 -8 242 -72 305 -48 49 -102 70 -180 70 l-68 0 0 225 0 224 797 766
c439 421 801 764 806 762 4 -1 207 -193 451 -427z m1761 -615 l25 -24 0 -351
0 -351 -25 -24 -24 -25 -991 0 -991 0 -24 25 -25 24 0 351 0 351 25 24 24 25
991 0 991 0 24 -25z m289 -469 c53 -22 56 -44 56 -388 0 -346 -3 -367 -60
-387 -23 -8 -204 -11 -605 -11 -644 0 -630 1 -703 -73 -66 -67 -72 -97 -72
-348 0 -199 -2 -219 -17 -219 -34 0 -103 -42 -124 -76 -19 -32 -24 -72 -50
-422 -15 -213 -28 -404 -29 -424 l0 -38 -1250 0 -1250 0 0 880 0 880 55 0 c46
0 60 -4 80 -25 25 -24 25 -25 25 -218 0 -233 8 -265 80 -330 73 -66 151 -82
243 -51 57 19 128 93 145 152 8 27 12 139 12 352 0 347 2 357 66 407 70 53
167 37 222 -35 l27 -35 5 -791 5 -791 25 -50 c31 -64 91 -124 155 -155 72 -35
198 -35 270 0 64 31 124 91 155 155 l25 50 5 503 5 504 24 19 c30 24 72 24
102 0 23 -19 24 -25 29 -203 5 -168 8 -187 30 -233 31 -64 91 -124 155 -155
72 -35 198 -35 270 0 64 31 124 91 155 155 l25 50 3 443 3 442 710 0 c782 0
749 -3 818 63 61 58 71 93 71 265 l0 152 35 0 c20 0 51 -6 69 -14z m-1214
-1669 l5 -77 -95 0 -95 0 3 67 c2 38 5 74 7 81 4 9 27 12 87 10 l83 -3 5 -78z
m42 -604 c15 -222 22 -377 17 -391 -12 -32 -48 -42 -149 -42 -97 0 -132 11
-148 44 -6 14 -1 139 17 389 l25 367 106 0 106 0 26 -367z"/>
</g>
</svg>
