<?xml version="1.0" standalone="no"?>
<!DOCTYPE svg PUBLIC "-//W3C//DTD SVG 20010904//EN"
 "http://www.w3.org/TR/2001/REC-SVG-20010904/DTD/svg10.dtd">
<svg version="1.0" xmlns="http://www.w3.org/2000/svg"
 width="512.000000pt" height="512.000000pt" viewBox="0 0 512.000000 512.000000"
 preserveAspectRatio="xMidYMid meet">
<metadata>
Created by potrace 1.16, written by Peter Selinger 2001-2019
</metadata>
<g transform="translate(0.000000,512.000000) scale(0.100000,-0.100000)"
fill="#000000" stroke="none">
<path d="M1073 5026 c-100 -32 -190 -113 -241 -216 -27 -54 -27 -58 -30 -282
-3 -223 -4 -226 -25 -232 -36 -9 -94 -63 -116 -109 -15 -30 -21 -63 -21 -108
0 -64 -1 -66 -48 -115 -89 -92 -126 -206 -110 -341 16 -148 121 -276 263 -325
l50 -17 6 -88 c12 -157 68 -318 159 -454 54 -81 200 -225 268 -264 l52 -30 0
-110 0 -110 -421 -128 c-231 -70 -444 -138 -472 -152 -121 -57 -230 -179 -279
-310 -23 -60 -23 -60 -26 -787 -2 -719 -2 -728 18 -748 20 -20 23 -20 2460
-20 2427 0 2440 0 2460 20 27 27 27 93 0 120 -17 17 -33 20 -120 20 l-100 0 0
275 c0 254 -2 278 -21 330 -28 74 -100 146 -174 174 -54 20 -73 21 -610 21
l-555 0 0 160 0 160 160 0 160 0 0 -27 c0 -38 33 -89 72 -113 30 -18 51 -20
208 -20 157 0 178 2 208 20 39 24 72 75 72 113 l0 27 195 0 c172 0 200 2 250
21 74 28 146 100 174 174 20 54 21 71 21 690 0 628 0 635 20 635 11 0 29 9 40
20 20 20 20 29 18 1004 l-3 984 -30 43 c-50 72 -104 103 -185 107 -83 5 -124
-8 -180 -55 -62 -54 -80 -99 -80 -210 0 -110 14 -133 78 -133 56 0 82 31 82
98 0 100 38 145 106 128 46 -12 54 -53 54 -271 l0 -195 -80 0 -80 0 0 60 c0
75 -20 100 -80 100 -60 0 -80 -25 -80 -100 l0 -60 -552 0 c-517 0 -556 -2
-593 -19 -49 -23 -99 -74 -119 -123 -20 -48 -20 -148 0 -196 31 -76 120 -141
192 -142 l32 0 0 -93 c0 -110 17 -186 67 -287 50 -104 169 -223 273 -273 117
-57 171 -67 367 -67 l173 0 0 -140 c0 -127 2 -142 20 -160 11 -11 29 -20 40
-20 19 0 20 -7 20 -180 0 -167 1 -181 20 -200 29 -29 84 -27 115 5 25 24 25
27 25 200 l0 175 80 0 80 0 0 -602 c0 -365 -4 -617 -10 -638 -12 -45 -65 -97
-111 -110 -18 -6 -107 -10 -196 -10 l-163 0 0 80 0 80 138 0 c197 0 182 -26
182 319 l0 272 -25 24 c-31 32 -86 34 -115 5 -19 -19 -20 -33 -20 -240 l0
-220 -80 0 -80 0 0 28 c0 37 -33 88 -72 112 -30 18 -51 20 -208 20 -157 0
-178 -2 -208 -20 -39 -24 -72 -75 -72 -112 l0 -28 -234 0 -235 0 -76 55 c-86
61 -94 64 -662 236 l-313 94 0 110 1 110 57 35 c73 46 207 178 262 259 90 134
148 299 159 454 l6 88 52 18 c100 34 180 107 231 211 25 50 27 65 27 170 0
107 -2 119 -29 174 -16 33 -51 82 -77 109 -48 50 -49 52 -49 116 0 45 -6 78
-21 108 -22 46 -80 100 -116 109 -21 6 -22 9 -25 232 l-3 227 -29 60 c-38 77
-114 153 -191 191 l-60 29 -660 2 c-528 2 -668 -1 -702 -11z m867 -161 c0 -9
-11 -27 -25 -40 l-24 -25 -275 0 c-151 0 -282 3 -291 6 -14 6 -45 53 -45 69 0
3 149 5 330 5 291 0 330 -2 330 -15z m419 9 c37 -8 39 -17 6 -49 -24 -24 -28
-25 -180 -25 -152 0 -156 1 -180 25 -14 13 -25 31 -25 40 0 13 24 15 174 15
95 0 188 -3 205 -6z m-439 -376 l0 -63 -160 0 -160 0 0 63 0 62 160 0 160 0 0
-62z m215 -252 c207 -27 468 -79 536 -107 37 -15 53 -53 37 -87 -21 -43 -51
-52 -116 -37 -104 24 -345 65 -487 81 -336 40 -794 9 -1172 -79 -71 -17 -100
-8 -121 35 -15 33 -1 71 33 86 60 28 401 92 585 111 58 6 119 13 135 15 63 9
465 -4 570 -18z m2745 -86 l0 -80 -94 0 c-109 0 -133 -12 -142 -72 -5 -30 -2
-41 19 -62 24 -24 32 -26 122 -26 l95 0 0 -280 0 -280 -385 0 c-242 0 -404 4
-437 11 -224 47 -378 244 -378 484 l0 65 375 0 376 0 26 26 c21 21 24 32 20
62 -12 70 15 66 -518 72 l-481 5 -19 24 c-26 32 -24 77 6 106 l24 25 696 0
695 0 0 -80z m-2935 -215 c122 -6 406 -46 530 -73 l80 -18 3 -305 c2 -188 -1
-334 -8 -383 -51 -356 -335 -633 -696 -678 -297 -38 -597 103 -765 360 -49 75
-78 141 -107 247 -14 51 -17 114 -17 409 l0 350 80 18 c203 45 617 91 745 82
25 -2 95 -6 155 -9z m-1145 -287 c0 -109 -2 -198 -5 -198 -15 0 -63 31 -86 57
-47 49 -63 93 -63 163 0 72 17 114 66 166 27 29 32 31 59 21 l29 -11 0 -198z
m2053 127 c28 -52 29 -155 3 -205 -29 -56 -99 -120 -131 -120 -3 0 -5 88 -5
195 l0 194 28 15 c25 14 29 13 55 -12 16 -15 38 -45 50 -67z m2027 -665 l0
-80 -160 0 -160 0 0 80 0 80 160 0 160 0 0 -80z m-3330 -777 c46 -12 107 -17
210 -17 137 0 175 5 298 40 22 6 22 5 22 -75 l0 -82 -52 -24 c-67 -30 -189
-55 -268 -55 -79 0 -201 25 -267 55 l-53 24 0 82 c0 80 0 81 23 75 12 -4 51
-14 87 -23z m-114 -307 c92 -39 170 -57 276 -63 143 -9 292 21 420 83 37 17
39 17 113 -6 l75 -24 0 -230 c0 -222 1 -230 22 -253 28 -30 83 -31 115 -1 23
21 23 25 23 226 l0 204 33 -7 c17 -4 35 -9 40 -12 4 -2 7 -90 7 -195 0 -183 1
-193 22 -215 30 -32 81 -31 113 2 25 24 25 27 25 190 0 125 3 165 13 165 30
-1 301 -91 347 -116 67 -37 125 -100 163 -182 l32 -67 3 -487 3 -488 -200 0
-200 0 -3 357 c-3 394 -2 385 -69 452 -70 71 8 66 -1034 69 -1044 3 -987 6
-1059 -64 -73 -70 -71 -59 -74 -457 l-3 -357 -200 0 -200 0 3 488 3 487 32 67
c65 137 142 191 368 257 77 23 144 41 148 41 4 0 7 -75 7 -167 0 -157 1 -168
22 -190 28 -30 83 -31 115 -1 22 21 23 26 23 214 0 106 3 195 8 197 4 3 22 8
40 12 l32 7 0 -203 c0 -194 1 -204 22 -226 30 -32 81 -31 113 2 l25 24 0 229
0 228 63 22 c72 24 91 23 173 -12z m2724 -436 l0 -240 -120 0 -120 0 0 240 0
240 120 0 120 0 0 -240z m-400 0 l0 -80 -160 0 c-120 0 -161 3 -164 13 -2 6
-12 42 -24 80 l-20 67 184 0 184 0 0 -80z m759 -730 c46 -13 99 -65 111 -110
5 -19 10 -144 10 -277 l0 -243 -80 0 -80 0 0 217 c0 282 14 263 -197 263 -150
0 -155 -1 -178 -25 -32 -31 -34 -86 -5 -115 17 -17 33 -20 120 -20 l100 0 0
-160 0 -160 -440 0 -440 0 0 160 0 160 220 0 c207 0 221 1 240 20 29 29 27 84
-5 115 -24 25 -24 25 -240 25 l-215 0 0 80 0 80 523 0 c312 0 536 -4 556 -10z
m-2439 -87 c0 -9 10 -27 22 -40 20 -21 30 -23 120 -23 l98 0 0 -240 0 -240
-560 0 -560 0 0 240 0 240 337 0 c332 0 337 0 360 22 13 12 23 30 23 40 0 16
9 18 80 18 68 0 80 -2 80 -17z m-1440 -463 l0 -80 -200 0 -200 0 0 80 0 80
200 0 200 0 0 -80z m2640 0 l0 -80 -200 0 -200 0 0 80 0 80 200 0 200 0 0 -80z"/>
<path d="M3393 3259 c-61 -24 -132 -89 -164 -150 -34 -66 -38 -194 -9 -272 79
-209 369 -267 530 -107 120 121 122 334 6 454 -68 69 -115 89 -221 93 -73 2
-100 -1 -142 -18z m191 -153 c49 -20 88 -77 93 -134 11 -132 -145 -219 -250
-139 -149 114 -16 345 157 273z"/>
<path d="M215 3181 c-87 -40 -135 -120 -135 -223 1 -142 97 -238 240 -238 144
0 240 96 240 240 0 104 -53 187 -142 224 -52 22 -153 20 -203 -3z m160 -166
c50 -49 15 -135 -55 -135 -20 0 -40 9 -57 26 -21 21 -24 32 -19 62 11 70 83
96 131 47z"/>
<path d="M3015 2621 c-87 -40 -135 -120 -135 -223 1 -142 97 -238 240 -238
144 0 240 96 240 240 0 104 -53 187 -142 224 -52 22 -153 20 -203 -3z m160
-166 c50 -49 15 -135 -55 -135 -20 0 -40 9 -57 26 -21 21 -24 32 -19 62 11 70
83 96 131 47z"/>
</g>
</svg>
