<?xml version="1.0" standalone="no"?>
<!DOCTYPE svg PUBLIC "-//W3C//DTD SVG 20010904//EN"
 "http://www.w3.org/TR/2001/REC-SVG-20010904/DTD/svg10.dtd">
<svg version="1.0" xmlns="http://www.w3.org/2000/svg"
 width="1280.000000pt" height="1280.000000pt" viewBox="0 0 1280.000000 1280.000000"
 preserveAspectRatio="xMidYMid meet">
<metadata>
Created by potrace 1.16, written by Peter Selinger 2001-2019
</metadata>
<g transform="translate(0.000000,1280.000000) scale(0.100000,-0.100000)"
fill="#000000" stroke="none">
<path d="M6205 11734 c-551 -58 -995 -244 -1400 -587 l-70 -59 55 53 c64 61
221 180 309 233 33 21 61 40 61 43 0 12 -155 -91 -275 -185 -99 -76 -315 -278
-315 -294 0 -6 8 -5 18 3 9 7 1 -4 -17 -24 -40 -43 -56 -50 -20 -9 15 17 11
15 -14 -7 -37 -35 -52 -65 -19 -40 9 7 6 1 -7 -14 -27 -30 -41 -37 -20 -9 11
14 10 13 -9 -2 -22 -19 -31 -43 -12 -31 16 10 11 -1 -7 -16 -15 -12 -16 -12
-8 1 8 13 7 13 -8 1 -18 -14 -24 -36 -7 -26 16 10 11 -1 -7 -16 -15 -12 -16
-12 -8 1 5 9 0 8 -13 -4 -26 -23 -30 -45 -4 -25 15 13 16 12 4 -3 -8 -10 -19
-16 -24 -15 -6 1 -13 -4 -16 -12 -3 -9 0 -11 9 -6 8 5 11 4 6 -1 -5 -5 -14 -9
-20 -9 -5 0 -12 -6 -15 -14 -3 -9 0 -11 9 -6 8 5 11 4 6 -1 -5 -5 -14 -9 -20
-9 -5 0 -12 -6 -15 -14 -3 -9 0 -11 8 -6 9 5 11 4 6 -4 -4 -6 -11 -9 -16 -6
-12 7 -33 -32 -25 -45 4 -6 1 -9 -6 -8 -6 2 -14 -3 -17 -11 -3 -9 0 -11 9 -6
8 5 11 4 6 -1 -5 -5 -14 -9 -20 -9 -16 0 -144 -260 -190 -383 -44 -121 -83
-254 -91 -308 -3 -22 4 -4 15 39 31 112 34 88 5 -34 -48 -200 -61 -317 -60
-559 0 -242 13 -362 60 -559 13 -57 22 -106 20 -108 -2 -2 -12 30 -22 73 -10
42 -20 71 -22 65 -5 -16 52 -216 94 -328 53 -142 122 -285 134 -278 5 3 8 0 5
-7 -6 -16 94 -190 105 -183 5 3 12 0 16 -6 5 -8 3 -9 -6 -4 -8 5 -11 3 -8 -6
3 -8 10 -14 16 -14 5 0 14 -4 19 -9 5 -5 2 -6 -6 -1 -9 5 -12 3 -9 -6 3 -8 10
-14 16 -14 5 0 14 -4 19 -9 5 -5 3 -6 -4 -2 -19 11 -16 -9 4 -25 15 -12 16
-12 8 1 -8 13 -7 13 8 1 18 -15 23 -26 7 -16 -17 10 -11 -12 7 -26 15 -12 16
-12 8 1 -8 13 -7 13 8 1 18 -15 23 -26 7 -16 -17 10 -11 -12 7 -26 15 -12 16
-12 8 1 -8 13 -7 13 8 1 18 -15 23 -26 7 -16 -5 3 -10 2 -10 -3 0 -12 25 -33
32 -27 3 3 13 -5 24 -17 15 -18 16 -20 2 -9 -35 27 -17 -6 24 -44 41 -38 42
-39 13 -5 -29 34 -28 33 13 -5 40 -37 59 -61 27 -35 -8 7 -15 8 -15 3 0 -11
153 -163 164 -163 5 0 2 8 -5 18 -7 9 6 -1 29 -23 47 -44 57 -62 14 -24 -16
13 -8 4 17 -20 90 -87 318 -246 431 -300 57 -27 42 -17 -95 64 -60 36 -117 73
-125 81 -8 9 17 -4 55 -29 275 -175 545 -285 855 -347 631 -127 1261 -6 1815
347 39 25 63 38 55 29 -8 -8 -64 -45 -125 -81 -137 -81 -152 -91 -95 -64 113
54 341 213 431 300 25 24 31 33 15 19 -24 -19 -22 -15 9 18 37 40 61 59 35 27
-7 -8 -8 -15 -3 -15 11 0 163 153 163 164 0 5 -8 2 -17 -5 -10 -7 0 6 22 29
46 49 62 57 19 10 -21 -24 -17 -22 14 7 41 38 59 71 25 44 -15 -11 -14 -9 1 9
11 12 21 20 24 17 7 -6 32 15 32 27 0 5 -4 6 -10 3 -16 -10 -11 1 7 16 15 12
16 12 8 -1 -8 -13 -7 -13 8 -1 18 14 24 36 7 26 -16 -10 -11 1 7 16 15 12 16
12 8 -1 -8 -13 -7 -13 8 -1 18 14 24 36 7 26 -16 -10 -11 1 7 16 15 12 16 12
8 -1 -8 -13 -7 -13 8 -1 20 16 23 36 5 25 -8 -4 -10 -3 -5 2 5 5 14 9 19 9 6
0 13 6 16 14 3 9 0 11 -9 6 -8 -5 -11 -4 -6 1 5 5 14 9 19 9 6 0 13 6 16 14 3
9 0 11 -8 6 -9 -5 -11 -4 -6 4 4 6 11 9 16 6 11 -7 111 167 105 183 -3 7 0 10
5 7 12 -7 81 136 134 278 42 112 99 312 94 328 -2 6 -12 -23 -22 -65 -10 -43
-20 -75 -22 -73 -2 2 7 51 20 108 48 199 61 317 61 559 -1 252 -15 375 -69
592 -36 147 -30 160 8 18 14 -52 23 -78 20 -56 -8 55 -47 188 -91 308 -46 123
-174 383 -190 383 -6 0 -15 4 -20 9 -5 5 -2 6 6 1 9 -5 12 -3 9 6 -3 8 -11 13
-17 11 -7 -1 -10 2 -6 8 8 13 -13 52 -25 45 -5 -3 -12 0 -16 6 -5 8 -3 9 6 4
8 -5 11 -3 8 6 -3 8 -10 14 -16 14 -5 0 -14 4 -19 9 -5 5 -2 6 6 1 9 -5 12 -3
9 6 -3 8 -10 14 -16 14 -5 0 -14 4 -19 9 -5 5 -2 6 6 1 9 -5 12 -3 9 6 -3 8
-10 13 -16 12 -5 -1 -16 5 -24 15 -12 15 -11 16 5 3 25 -20 21 2 -5 25 -12 10
-18 13 -14 7 10 -19 1 -16 -15 4 -10 11 -10 14 -1 9 18 -11 15 9 -5 25 -11 10
-14 10 -9 2 11 -19 1 -16 -15 4 -10 11 -10 14 -1 9 21 -12 13 10 -10 30 -22
19 -23 19 -8 -1 11 -15 7 -14 -13 4 -28 25 -38 43 -12 21 32 -27 13 8 -22 41
-34 31 -36 31 -13 4 23 -27 21 -27 -13 4 -36 34 -52 56 -22 31 9 -7 15 -8 15
-2 0 16 -216 218 -315 294 -120 94 -275 197 -275 185 0 -3 28 -22 61 -43 88
-53 245 -172 309 -233 l55 -53 -70 59 c-364 309 -774 496 -1245 568 -101 16
-459 28 -545 19z m516 -254 c319 -47 626 -164 893 -340 114 -75 236 -172 281
-222 23 -25 20 -24 -15 8 -137 125 -320 249 -504 340 -72 35 -135 64 -140 64
-6 0 52 -31 129 -69 233 -114 383 -221 580 -410 66 -64 107 -101 91 -83 -43
47 -27 39 19 -10 22 -23 32 -36 23 -29 -29 21 -21 -3 9 -30 15 -13 21 -16 14
-6 -21 27 -7 20 20 -10 13 -15 16 -21 7 -14 -10 7 -18 9 -18 3 0 -12 25 -34
32 -27 3 3 11 -3 19 -12 13 -16 12 -17 -3 -4 -26 20 -22 -2 4 -25 12 -10 18
-13 14 -6 -10 18 -1 15 15 -5 12 -14 12 -16 0 -9 -9 6 -12 4 -9 -5 3 -8 10
-14 15 -14 6 0 15 -4 20 -9 5 -5 2 -6 -6 -1 -9 5 -12 3 -9 -6 3 -8 10 -14 15
-14 6 0 15 -4 20 -9 5 -5 2 -6 -6 -1 -9 5 -12 3 -9 -6 3 -8 10 -14 15 -14 6 0
15 -4 20 -9 5 -5 2 -6 -6 -1 -9 5 -12 3 -9 -6 3 -8 10 -14 15 -14 6 0 15 -4
20 -9 5 -5 2 -6 -6 -1 -9 5 -12 3 -9 -6 3 -8 11 -13 17 -11 7 1 10 -2 7 -7 -3
-5 21 -60 53 -123 75 -143 133 -288 176 -442 19 -67 34 -114 34 -105 1 8 -12
62 -28 118 -16 56 -25 99 -20 94 17 -17 78 -285 95 -415 19 -149 15 -485 -6
-616 -19 -113 -22 -78 -5 52 15 120 19 422 6 526 -4 30 -5 -46 -3 -170 4 -214
0 -277 -33 -500 -4 -31 -4 -32 5 -10 8 21 9 18 4 -15 -7 -52 -45 -197 -51
-192 -2 3 5 38 17 78 11 40 20 80 19 89 0 8 -15 -39 -34 -105 -41 -149 -100
-298 -171 -434 -59 -113 -60 -116 -42 -105 7 4 8 3 4 -5 -4 -6 -11 -9 -16 -6
-5 3 -14 -3 -19 -14 -14 -26 -14 -34 2 -25 7 4 9 3 4 -2 -5 -5 -14 -9 -19 -9
-6 0 -13 -6 -16 -14 -3 -9 0 -11 9 -6 8 5 11 4 6 -1 -5 -5 -14 -9 -19 -9 -6 0
-13 -6 -16 -14 -3 -9 0 -11 9 -6 8 5 11 4 6 -1 -5 -5 -14 -9 -19 -9 -6 0 -13
-6 -16 -14 -3 -9 0 -11 9 -6 8 5 11 4 6 -1 -5 -5 -10 -7 -11 -4 -4 8 -36 -21
-36 -32 0 -6 8 -4 18 3 15 13 16 12 3 -4 -8 -9 -16 -15 -19 -12 -7 7 -32 -15
-32 -27 0 -6 7 -5 15 2 24 20 18 5 -7 -16 -13 -12 -18 -13 -13 -4 8 13 7 13
-8 1 -18 -14 -24 -36 -7 -26 18 11 11 -1 -12 -21 -22 -19 -23 -19 -8 1 11 15
7 14 -13 -4 -30 -27 -38 -51 -9 -30 9 7 -3 -8 -27 -34 -24 -25 -47 -44 -51
-42 -4 2 -24 -14 -45 -35 -22 -22 -35 -40 -30 -40 5 0 -4 -14 -21 -31 -37 -40
-130 -118 -120 -101 13 21 -4 13 -47 -22 -68 -54 -214 -146 -332 -208 -60 -32
-107 -58 -102 -58 30 -1 291 150 408 236 35 26 57 39 49 30 -24 -30 -242 -170
-349 -225 -318 -163 -643 -241 -1011 -241 -368 0 -693 78 -1011 241 -107 55
-325 195 -349 225 -8 9 14 -4 49 -30 117 -86 378 -237 408 -236 5 0 -41 26
-102 58 -118 62 -264 154 -332 208 -43 35 -60 43 -47 22 10 -17 -83 61 -120
101 -17 17 -26 31 -21 31 5 0 -8 18 -30 40 -21 21 -41 37 -45 35 -4 -2 -27 17
-51 42 -24 26 -36 41 -26 34 28 -21 20 3 -10 30 -15 13 -21 16 -14 7 19 -25 8
-22 -15 4 -10 12 -13 18 -6 14 18 -11 15 9 -5 25 -11 10 -14 10 -9 2 12 -20 1
-15 -20 9 -15 19 -16 20 -1 9 9 -7 17 -9 17 -3 0 12 -25 34 -32 27 -3 -3 -11
3 -19 12 -13 16 -12 17 4 4 10 -8 17 -9 17 -3 0 11 -19 27 -32 27 -3 0 -10 4
-15 9 -5 5 -2 6 6 1 9 -5 12 -3 9 6 -3 8 -10 14 -16 14 -5 0 -14 4 -19 9 -5 5
-2 6 6 1 9 -5 12 -3 9 6 -3 8 -10 14 -16 14 -5 0 -14 4 -19 9 -5 5 -2 6 6 1 9
-5 12 -3 9 6 -3 8 -10 14 -16 14 -5 0 -14 4 -19 9 -5 5 -3 6 5 2 15 -9 15 -1
1 25 -5 11 -14 17 -19 14 -5 -3 -12 0 -16 6 -4 8 -3 9 4 5 18 -11 17 -8 -42
105 -71 136 -130 285 -171 434 -19 66 -34 113 -34 105 -1 -9 8 -49 19 -89 12
-40 19 -75 17 -78 -13 -12 -70 255 -87 406 -14 121 -8 467 10 579 20 116 22
77 4 -59 -18 -141 -15 -489 6 -617 19 -113 22 -78 5 52 -8 67 -15 191 -15 289
0 149 7 229 34 424 4 30 4 33 -3 13 -6 -16 -9 -19 -10 -8 -1 23 58 251 68 261
5 5 -4 -38 -20 -94 -16 -56 -29 -110 -28 -118 0 -9 15 38 34 104 42 152 92
280 164 420 68 132 67 130 51 120 -9 -5 -11 -4 -6 4 4 6 11 9 16 6 5 -3 14 3
19 14 14 26 14 34 -1 25 -8 -4 -10 -3 -5 2 5 5 14 9 20 9 5 0 12 6 15 14 3 9
0 11 -9 6 -8 -5 -11 -4 -6 1 5 5 14 9 20 9 5 0 12 6 15 14 3 9 0 11 -9 6 -8
-5 -11 -4 -6 1 5 5 14 9 20 9 5 0 12 6 15 14 3 9 0 11 -9 6 -8 -5 -11 -4 -6 1
5 5 14 9 20 9 5 0 12 6 15 14 3 8 0 11 -7 7 -17 -11 -13 0 6 15 15 12 16 12 8
-1 -5 -9 0 -8 13 4 26 23 30 45 5 25 -16 -13 -17 -12 -4 4 8 9 16 15 19 12 7
-7 32 15 32 27 0 6 -7 5 -15 -2 -26 -22 -16 -4 12 21 21 18 24 19 13 4 -11
-15 -8 -14 13 4 28 25 39 53 12 31 -32 -26 -13 -2 27 35 41 38 42 39 13 5 -16
-19 24 17 90 81 197 189 347 296 580 410 77 38 135 69 129 69 -5 0 -68 -29
-140 -64 -184 -91 -367 -215 -504 -340 -35 -32 -38 -33 -15 -8 45 50 167 147
281 222 263 173 572 292 885 339 177 27 469 28 650 1z"/>
<path d="M4560 7073 c14 -2 45 -22 70 -45 l45 -41 -48 38 -47 37 -148 -22
c-380 -54 -702 -156 -1052 -331 -107 -54 -188 -93 -178 -86 9 7 25 18 35 25
60 43 -104 -55 -211 -126 -241 -158 -500 -384 -680 -590 -82 -95 -101 -122
-73 -106 6 4 3 -2 -7 -14 -23 -26 -34 -29 -15 -4 11 14 10 13 -9 -2 -23 -20
-31 -42 -9 -30 8 5 7 2 -2 -9 -8 -10 -16 -15 -19 -12 -7 6 -32 -15 -32 -27 0
-5 6 -6 13 -2 8 5 8 2 -2 -9 -16 -20 -26 -23 -15 -4 5 8 2 8 -9 -2 -20 -16
-23 -36 -4 -25 7 4 9 3 4 -2 -5 -5 -14 -9 -19 -9 -6 0 -13 -6 -16 -14 -3 -9 0
-11 9 -5 12 7 12 5 0 -9 -16 -20 -26 -23 -15 -4 5 8 2 8 -9 -2 -20 -16 -23
-36 -4 -25 7 4 9 3 4 -2 -5 -5 -14 -9 -19 -9 -6 0 -13 -6 -16 -14 -3 -9 0 -11
9 -6 8 5 11 4 6 -1 -5 -5 -14 -9 -19 -9 -6 0 -13 -6 -16 -14 -3 -9 0 -11 9 -6
8 5 11 4 6 -1 -5 -5 -14 -9 -19 -9 -6 0 -13 -6 -16 -14 -3 -9 0 -11 9 -6 8 5
11 4 6 -1 -5 -5 -14 -9 -19 -9 -6 0 -13 -6 -16 -14 -3 -9 0 -11 8 -6 9 5 11 4
6 -4 -4 -6 -11 -9 -16 -6 -5 3 -14 -3 -19 -14 -14 -26 -14 -34 1 -25 7 4 8 3
4 -5 -4 -6 -11 -9 -16 -6 -5 3 -14 -3 -19 -14 -14 -26 -14 -34 2 -25 7 4 9 3
4 -2 -5 -5 -13 -9 -19 -9 -16 0 -129 -218 -197 -380 -62 -148 -81 -202 -61
-175 9 12 10 10 5 -8 -15 -52 -54 -156 -54 -146 -1 6 8 37 19 69 11 32 18 60
16 63 -6 5 -68 -196 -101 -327 -36 -144 -73 -368 -79 -481 -5 -92 -5 -91 9 30
15 132 58 375 75 425 l10 30 -5 -30 c-2 -16 -16 -90 -30 -163 -53 -280 -56
-361 -53 -1312 2 -481 7 -884 11 -895 l9 -20 -14 20 c-10 16 -14 196 -18 920
l-5 900 -2 -890 c-2 -831 -1 -893 16 -935 10 -25 23 -44 29 -43 6 2 9 -3 6
-10 -2 -7 10 -28 27 -47 17 -19 25 -26 18 -15 -7 11 16 -7 51 -40 36 -33 81
-73 100 -88 l35 -29 -40 28 c-22 15 -61 48 -87 73 -27 25 -48 41 -48 36 0 -19
163 -149 173 -139 3 3 32 -10 64 -29 533 -321 1732 -574 3183 -671 494 -34
739 -41 1380 -41 641 0 886 7 1380 41 1451 97 2650 350 3183 671 32 19 61 32
64 29 10 -10 173 120 173 139 0 5 -21 -11 -47 -36 -27 -25 -66 -58 -88 -73
l-40 -28 35 29 c19 15 64 55 100 88 35 33 58 51 51 40 -7 -11 1 -4 18 15 17
19 29 40 27 47 -3 7 0 12 6 10 6 -1 19 18 29 43 17 42 18 104 16 935 l-2 890
-5 -900 c-4 -724 -8 -904 -18 -920 l-14 -20 9 20 c4 11 9 414 11 895 3 951 0
1032 -53 1312 -14 73 -28 147 -30 163 l-5 30 10 -30 c17 -50 60 -293 75 -425
14 -121 14 -122 9 -30 -6 113 -43 337 -79 481 -33 131 -95 332 -101 327 -2 -3
5 -31 16 -63 11 -32 20 -63 19 -69 0 -10 -39 94 -54 146 -5 18 -4 20 5 8 20
-27 1 27 -61 175 -68 162 -181 380 -197 380 -6 0 -14 4 -19 9 -5 5 -3 6 5 2
15 -9 15 -1 1 25 -5 11 -14 17 -19 14 -5 -3 -12 0 -16 6 -4 8 -3 9 4 5 15 -9
15 -1 1 25 -5 11 -14 17 -19 14 -5 -3 -12 0 -16 6 -5 8 -3 9 6 4 8 -5 11 -3 8
6 -3 8 -10 14 -15 14 -6 0 -15 4 -20 9 -5 5 -2 6 6 1 9 -5 12 -3 9 6 -3 8 -10
14 -15 14 -6 0 -15 4 -20 9 -5 5 -2 6 6 1 9 -5 12 -3 9 6 -3 8 -10 14 -15 14
-6 0 -15 4 -20 9 -5 5 -2 6 6 1 9 -5 12 -3 9 6 -3 8 -10 14 -15 14 -6 0 -15 4
-20 9 -5 5 -3 6 5 2 18 -11 15 9 -5 25 -15 12 -16 12 -8 -1 8 -13 7 -13 -8 -1
-19 15 -23 26 -6 15 7 -4 10 -1 7 7 -3 8 -10 14 -15 14 -6 0 -15 4 -20 9 -5 5
-3 6 5 2 18 -11 15 9 -5 25 -15 12 -16 12 -8 -1 8 -13 7 -13 -8 -1 -18 15 -23
26 -7 16 6 -3 10 -2 10 3 0 12 -25 33 -32 27 -3 -3 -11 2 -19 12 -9 11 -10 14
-1 9 21 -12 13 10 -10 30 -22 19 -23 19 -8 -1 15 -20 14 -20 -8 -1 -23 20 -30
32 -12 21 51 -31 -131 176 -274 312 -193 183 -479 399 -661 498 -45 24 -44 18
2 -12 10 -6 -70 32 -177 86 -351 175 -673 277 -1052 331 l-148 22 -47 -37 -48
-38 45 41 c25 23 56 42 70 43 21 1 22 2 4 6 -14 3 -53 -20 -125 -74 -143 -108
-267 -184 -449 -275 -173 -87 -194 -104 -35 -29 125 59 268 142 394 228 51 35
90 60 87 54 -4 -6 -53 -41 -109 -79 -982 -656 -2232 -656 -3214 0 -56 38 -105
73 -109 79 -3 6 36 -19 87 -54 126 -86 269 -169 394 -228 159 -75 138 -58 -35
29 -182 91 -306 167 -448 274 -63 47 -112 77 -125 77 -19 -2 -18 -3 3 -6z
m-19 -283 l24 -20 -32 17 c-29 16 -37 16 -140 0 -119 -19 -367 -77 -360 -84 3
-2 49 7 103 21 111 28 314 66 353 66 16 0 59 -23 106 -57 183 -130 426 -263
634 -347 120 -49 300 -110 306 -104 2 2 -42 19 -98 37 -139 45 -292 108 -427
176 -118 59 -326 181 -335 196 -3 4 43 -21 102 -57 1013 -617 2261 -611 3273
16 63 39 108 65 100 56 -26 -25 -230 -145 -354 -208 -140 -70 -292 -133 -433
-179 -56 -18 -100 -35 -98 -37 6 -6 186 55 306 104 208 84 451 217 634 347 47
34 90 57 106 57 39 0 242 -38 353 -66 54 -14 100 -23 103 -21 7 7 -241 65
-360 84 -103 16 -111 16 -140 0 l-32 -17 24 20 c29 25 50 25 192 -1 321 -57
600 -152 902 -306 131 -67 387 -224 387 -237 0 -3 -54 30 -120 73 -139 91
-367 210 -525 274 -123 50 -304 111 -310 105 -2 -2 42 -19 98 -37 355 -115
745 -329 1015 -555 98 -82 121 -98 107 -76 -14 23 7 3 130 -122 72 -72 122
-126 113 -119 -33 25 -18 -5 19 -40 21 -18 29 -24 19 -11 -27 31 -15 28 15 -5
13 -14 18 -23 12 -19 -7 4 -13 3 -13 -2 0 -12 25 -33 32 -27 3 3 13 -5 24 -17
15 -18 16 -20 2 -9 -26 19 -22 -2 4 -25 13 -12 18 -13 13 -4 -8 13 -7 13 8 1
18 -15 23 -26 7 -16 -17 10 -11 -12 7 -26 15 -12 16 -12 8 1 -8 13 -7 13 8 1
18 -15 23 -26 7 -16 -17 10 -11 -12 7 -26 15 -12 16 -12 8 1 -8 13 -7 13 8 1
19 -15 23 -26 6 -15 -7 4 -10 1 -7 -7 3 -8 10 -14 16 -14 6 0 17 -7 24 -15 11
-12 11 -12 -4 -1 -11 8 -18 9 -18 3 0 -11 19 -27 32 -27 3 0 10 -4 15 -9 5 -5
2 -6 -6 -1 -9 5 -12 3 -9 -6 3 -8 10 -14 15 -14 6 0 15 -4 20 -9 5 -5 2 -6 -6
-1 -9 5 -12 3 -9 -6 3 -8 10 -14 15 -14 6 0 15 -4 20 -9 5 -5 3 -6 -4 -2 -18
10 -16 -2 8 -40 11 -19 25 -32 29 -29 5 3 12 0 16 -6 4 -8 3 -9 -4 -5 -15 9
-15 1 -1 -25 5 -11 14 -17 19 -14 5 3 12 0 16 -6 4 -8 3 -9 -4 -5 -7 4 -12 5
-12 3 0 -3 29 -60 64 -128 82 -158 127 -260 188 -429 27 -74 47 -124 44 -111
-3 13 -1 20 3 15 11 -12 63 -202 59 -215 -2 -5 -14 31 -27 81 -13 50 -26 89
-28 86 -2 -2 7 -46 21 -97 14 -52 36 -152 50 -224 13 -71 25 -120 25 -108 1
12 -8 70 -20 129 -11 58 -18 108 -16 111 16 15 77 -418 75 -532 -1 -57 -2 -49
-9 45 -5 63 -13 140 -18 170 l-10 55 4 -55 c22 -258 26 -453 23 -1140 -2 -438
-7 -773 -12 -784 -7 -15 -6 -18 5 -12 26 14 -108 -109 -140 -127 -48 -28 -37
-14 22 26 29 20 66 51 82 69 30 32 30 32 -10 -3 -86 -74 -199 -140 -362 -210
-56 -24 -100 -45 -98 -47 5 -5 211 85 273 120 28 17 52 28 52 25 0 -8 -100
-62 -190 -102 -655 -289 -1755 -481 -3255 -567 -299 -18 -1711 -18 -2010 0
-1500 86 -2600 278 -3255 567 -90 40 -190 94 -190 102 0 3 21 -7 47 -21 25
-15 48 -25 50 -23 2 2 -21 16 -49 32 -68 36 -132 80 -183 124 -40 35 -40 35
-10 3 16 -18 53 -49 82 -69 59 -40 70 -54 22 -26 -32 18 -166 141 -140 127 11
-6 12 -3 5 12 -5 11 -10 346 -12 784 -3 687 1 882 23 1140 l4 55 -10 -55 c-5
-30 -13 -107 -18 -170 -7 -94 -8 -102 -9 -45 -2 114 59 547 75 532 2 -3 -5
-53 -16 -111 -12 -59 -21 -117 -20 -129 0 -12 12 37 25 108 14 72 36 172 50
224 14 51 23 95 21 97 -2 3 -15 -36 -28 -86 -13 -50 -25 -86 -27 -81 -4 13 48
203 59 215 4 5 6 -2 3 -15 -3 -13 17 37 44 111 61 169 106 271 188 429 35 68
64 125 64 128 0 2 -5 1 -12 -3 -7 -4 -8 -3 -4 5 4 6 11 9 16 6 5 -3 14 3 19
14 14 26 14 34 -1 25 -7 -4 -8 -3 -4 5 4 6 11 9 16 6 4 -3 18 10 29 29 24 38
26 50 9 40 -8 -4 -10 -3 -5 2 5 5 14 9 19 9 6 0 13 6 16 14 3 9 0 11 -9 6 -8
-5 -11 -4 -6 1 5 5 14 9 19 9 6 0 13 6 16 14 3 9 0 11 -9 6 -8 -5 -11 -5 -7
-1 3 4 10 8 15 8 12 0 33 19 33 30 0 6 -8 4 -17 -3 -16 -11 -16 -11 -5 1 7 8
18 15 24 15 6 0 13 6 16 14 3 9 0 11 -9 5 -12 -7 -12 -5 0 9 16 20 26 23 15 5
-5 -9 -2 -9 9 1 20 16 23 36 5 25 -9 -5 -9 -2 1 9 16 20 26 23 15 5 -5 -9 -2
-9 9 1 20 16 23 36 5 25 -9 -5 -9 -2 1 9 16 20 25 23 15 5 -4 -7 2 -4 14 6 26
23 30 44 5 25 -15 -11 -14 -9 1 9 11 12 21 20 24 17 7 -6 32 15 32 27 0 5 -4
6 -10 3 -19 -12 -10 2 17 26 l28 24 -20 -25 c-12 -16 -5 -12 18 9 35 33 54 68
22 41 -42 -35 -2 8 116 125 73 72 129 124 125 118 -14 -25 5 -12 106 73 270
226 660 440 1015 555 56 18 100 35 98 37 -6 6 -187 -55 -310 -105 -158 -64
-386 -183 -525 -274 -66 -43 -120 -76 -120 -73 0 13 256 170 387 237 297 152
554 240 878 302 153 30 186 30 216 5z m-2794 -4202 c-1 -222 -2 -43 -2 397 0
440 1 621 2 403 2 -218 2 -578 0 -800z m9310 0 c-1 -222 -2 -43 -2 397 0 440
1 621 2 403 2 -218 2 -578 0 -800z"/>
<path d="M5420 1327 c78 -5 494 -10 980 -10 486 0 902 5 980 10 119 10 107 10
-105 4 -132 -3 -526 -6 -875 -6 -349 0 -743 3 -875 6 -212 6 -224 6 -105 -4z"/>
<path d="M5775 1049 c105 -4 386 -6 625 -6 239 0 521 2 625 6 105 3 -177 6
-625 6 -448 0 -729 -3 -625 -6z"/>
</g>
</svg>
